<?xml version="1.0" standalone="no"?>
<!DOCTYPE svg PUBLIC "-//W3C//DTD SVG 20010904//EN"
 "http://www.w3.org/TR/2001/REC-SVG-20010904/DTD/svg10.dtd">
<svg version="1.0" xmlns="http://www.w3.org/2000/svg"
 width="512.000000pt" height="512.000000pt" viewBox="0 0 512.000000 512.000000"
 preserveAspectRatio="xMidYMid meet">
<metadata>
Created by potrace 1.11, written by Peter Selinger 2001-2013
</metadata>
<g transform="translate(0.000000,512.000000) scale(0.100000,-0.100000)"
fill="#000000" stroke="none">
<path d="M2278 4568 c-30 -51 -114 -196 -186 -322 l-132 -229 36 -76 c21 -42
97 -197 171 -345 73 -148 131 -271 128 -274 -3 -4 -31 -7 -63 -9 -181 -8 -364
-93 -494 -229 -72 -75 -93 -107 -209 -313 -15 -25 -36 -62 -47 -81 -12 -19
-34 -57 -50 -85 -72 -127 -306 -531 -323 -559 -10 -17 -22 -38 -26 -46 -4 -8
-34 -60 -66 -115 -126 -214 -161 -321 -160 -500 0 -181 86 -379 224 -517 l58
-58 -17 -32 c-26 -51 -22 -154 8 -204 30 -48 36 -54 84 -84 59 -36 146 -37
210 -2 38 21 79 60 102 100 1 2 17 -3 36 -11 46 -19 160 -38 234 -39 110 -1
231 25 326 71 163 79 279 195 379 381 13 25 26 47 29 50 3 3 14 22 25 43 11
20 24 37 29 37 5 0 6 3 3 7 -4 3 -3 11 2 17 4 6 20 31 33 56 25 45 190 331
382 659 114 197 126 218 156 281 88 184 85 442 -10 635 -34 71 -35 75 -15 76
11 0 36 2 55 3 19 2 91 7 160 11 69 4 143 9 165 10 22 2 83 6 135 9 172 11
235 18 243 25 4 5 35 55 68 112 230 395 301 520 298 523 -4 4 -304 73 -354 82
-16 3 -48 10 -70 16 -22 5 -48 12 -58 13 -35 7 -432 97 -446 101 -13 4 -13 10
3 115 4 22 12 80 21 149 2 14 11 71 19 127 9 57 16 106 16 109 0 5 -71 -48
-98 -73 -7 -7 -17 -13 -20 -13 -4 0 -18 -10 -32 -23 -14 -12 -76 -62 -138
-110 l-113 -89 -20 24 c-11 12 -65 70 -119 128 -54 58 -112 121 -130 140 -17
19 -78 85 -135 145 -56 61 -118 127 -136 148 -19 21 -53 59 -76 83 l-41 45
-54 -93z"/>
</g>
</svg>
